<svg id="Layer_1" data-name="Layer 1" xmlns="http://www.w3.org/2000/svg" xmlns:xlink="http://www.w3.org/1999/xlink" viewBox="0 0 21.08 21.12"><defs><style>.cls-1{fill:none;stroke:#2d4452;stroke-miterlimit:10;stroke-width:0.75px;}.cls-2{fill:#2d4452;}.cls-3{fill:#e6e6e6;}.cls-4{fill:#d9d9d9;}.cls-5{fill:#f5f5f5;}.cls-6{fill:#cc584c;}.cls-7{fill:#2995cc;}.cls-8{fill:#52a3cc;}.cls-9{fill:#cc827a;}.cls-10{fill:#ffd464;}.cls-11{fill:#e16b5a;}</style><symbol id="logo" data-name="logo" viewBox="0 0 21.08 21.12"><ellipse class="cls-1" cx="10.54" cy="10.56" rx="10.17" ry="10.18"/><ellipse class="cls-2" cx="10.54" cy="10.56" rx="9.1" ry="9.11"/><path class="cls-3" d="M3.26,7.3s5-1.28,5.4-1.42,1.56,0,1.56,1.56H9.66c0-.42-.15-1-.72-1s-2.41.85-2.41.85Z"/><path class="cls-4" d="M8.52,6.45C8,6.59,6.1,7.3,6.1,7.3h.43s1.55-.6,2.24-.81A.62.62,0,0,0,8.52,6.45Z"/><path class="cls-4" d="M8.75,5.85c.48.09,1.05.49,1.05,1.59h.42C10.22,6,9.22,5.76,8.75,5.85Z"/><path class="cls-3" d="M17.76,7.3s-5-1.28-5.4-1.42-1.57,0-1.57,1.56h.57c0-.42.14-1,.71-1s2.42.85,2.42.85Z"/><path class="cls-4" d="M11.5,6.45c-.53,0-.69.49-.71.91v.08h.57a1,1,0,0,1,.4-.92Z"/><path class="cls-4" d="M12.36,5.88a1,1,0,0,0-.59,0h0c.42.14,5.4,1.42,5.4,1.42h.57S12.78,6,12.36,5.88Z"/><path class="cls-5" d="M3.4,7.3a.85.85,0,0,0-.85.85v3.56a.86.86,0,0,0,.85.86H7.94a1.48,1.48,0,0,0,1.22-.77s.53-1.22,1.35-1.22,1.34,1.22,1.34,1.22a1.51,1.51,0,0,0,1.23.77h4.54a.86.86,0,0,0,.85-.86V8.15a.85.85,0,0,0-.85-.85Z"/><path class="cls-3" d="M10.08,10.58c-.82,0-1.34,1.22-1.34,1.22a1.51,1.51,0,0,1-1.23.77h.43a1.48,1.48,0,0,0,1.22-.77s.44-1,1.13-1.19A.66.66,0,0,0,10.08,10.58Z"/><path class="cls-3" d="M17.62,7.3h-.43a.85.85,0,0,1,.85.85v3.56a.86.86,0,0,1-.85.86h.43a.86.86,0,0,0,.85-.86V8.15A.85.85,0,0,0,17.62,7.3Z"/><path class="cls-6" d="M17.33,8H12.07a.58.58,0,0,0-.57.57v1.51a3.64,3.64,0,0,1,1.14,1.43l0,.05h4.67A.56.56,0,0,0,17.9,11V8.58A.57.57,0,0,0,17.33,8Z"/><path class="cls-7" d="M8.38,11.52a3.58,3.58,0,0,1,1.13-1.43V8.58A.57.57,0,0,0,8.94,8H3.68a.57.57,0,0,0-.56.57V11a.56.56,0,0,0,.56.57H8.36Z"/><polygon class="cls-8" points="5.17 8.01 3.12 10.07 3.12 10.87 5.97 8.01 5.17 8.01"/><path class="cls-8" d="M7.18,8h-.4L3.34,11.45a.5.5,0,0,0,.29.12Z"/><polygon class="cls-9" points="16.16 8.01 12.64 11.53 12.66 11.57 13.01 11.57 16.56 8.01 16.16 8.01"/><path class="cls-9" d="M14.55,8,12,10.55a4.16,4.16,0,0,1,.34.46l3-3Z"/><path class="cls-10" d="M15.63,15.84a.57.57,0,1,0,0-1.13.69.69,0,0,0-.29.07.64.64,0,0,0-.28-.07h0a.57.57,0,0,0-.55-.43.58.58,0,0,0-.54.38.53.53,0,0,0-.17-.08v0a.58.58,0,0,0-.57-.57.6.6,0,0,0-.37.14.56.56,0,0,0-.48-.28.41.41,0,0,0-.16,0,.56.56,0,0,0-1.11,0,.41.41,0,0,0-.16,0,.55.55,0,0,0-.43.21.56.56,0,0,0-1.12,0A.52.52,0,0,0,9.09,14a.6.6,0,0,0-.27.07.62.62,0,0,0-.44-.21.58.58,0,0,0-.54.38A.57.57,0,0,0,7.38,14a.6.6,0,0,0-.27.07.57.57,0,0,0-1,.24l-.15,0a.56.56,0,0,0-.55.43h0a.57.57,0,1,0,0,1.13Z"/><path class="cls-3" d="M4.82,17.69a9.09,9.09,0,0,0,11.38,0V15.42H4.82Z"/><path class="cls-5" d="M16.62,15.7a.29.29,0,0,1-.28.29H4.68a.29.29,0,0,1-.29-.29h0a.29.29,0,0,1,.29-.28H16.34a.29.29,0,0,1,.28.28Z"/><path class="cls-11" d="M8.38,16H8.09v3.37l.29.08Z"/><path class="cls-11" d="M7.24,16H7v3l.29.11Z"/><path class="cls-11" d="M7.81,16H7.52v3.2l.29.09Z"/><path class="cls-11" d="M8.94,16H8.66V19.5l.28.05Z"/><path class="cls-11" d="M6.1,16H5.82v2.4l.28.16Z"/><path class="cls-11" d="M15.48,18.2a2.9,2.9,0,0,0,.29-.19V16h-.29Z"/><path class="cls-11" d="M5.53,18.2V16H5.25v2Z"/><path class="cls-11" d="M9.51,16H9.23V19.6l.28,0Z"/><path class="cls-11" d="M6.67,16H6.39V18.7l.28.14Z"/><path class="cls-11" d="M11.5,19.63l.29,0V16H11.5Z"/><path class="cls-11" d="M13.78,19.08l.28-.11V16h-.28Z"/><path class="cls-11" d="M10.08,16H9.8v3.67l.28,0Z"/><path class="cls-11" d="M13.21,19.28l.28-.09V16h-.28Z"/><path class="cls-11" d="M14.35,18.84l.28-.14V16h-.28Z"/><path class="cls-11" d="M12.64,19.44l.29-.08V16h-.29Z"/><path class="cls-11" d="M10.93,19.68l.29,0V16h-.29Z"/><path class="cls-11" d="M10.65,19.69V16h-.28v3.7h.28Z"/><path class="cls-11" d="M14.92,18.55l.28-.16V16h-.28Z"/><path class="cls-11" d="M12.07,19.55l.29-.05V16h-.29Z"/></symbol></defs><use width="21.08" height="21.12" xlink:href="#logo"/></svg>